<?xml version="1.0" encoding="UTF-8" standalone="no"?>
<!-- Created with Inkscape (http://www.inkscape.org/) -->

<svg
   xmlns:dc="http://purl.org/dc/elements/1.1/"
   xmlns:cc="http://creativecommons.org/ns#"
   xmlns:rdf="http://www.w3.org/1999/02/22-rdf-syntax-ns#"
   xmlns:svg="http://www.w3.org/2000/svg"
   xmlns="http://www.w3.org/2000/svg"
   xmlns:sodipodi="http://sodipodi.sourceforge.net/DTD/sodipodi-0.dtd"
   xmlns:inkscape="http://www.inkscape.org/namespaces/inkscape"
   version="1.1"
   width="290"
   height="290"
   id="svg2"
   xml:space="preserve"
   inkscape:version="0.48.4 r9939"
   sodipodi:docname="Iconblack.svg"><sodipodi:namedview
     pagecolor="#ffffff"
     bordercolor="#666666"
     borderopacity="1"
     objecttolerance="10"
     gridtolerance="10"
     guidetolerance="10"
     inkscape:pageopacity="0"
     inkscape:pageshadow="2"
     inkscape:window-width="640"
     inkscape:window-height="480"
     id="namedview2999"
     showgrid="false"
     fit-margin-top="0"
     fit-margin-left="0"
     fit-margin-right="0"
     fit-margin-bottom="0"
     inkscape:zoom="0.3776"
     inkscape:cx="153.19338"
     inkscape:cy="132.55313"
     inkscape:window-x="0"
     inkscape:window-y="24"
     inkscape:window-maximized="0"
     inkscape:current-layer="svg2" /><metadata
     id="metadata8"><rdf:RDF><cc:Work
         rdf:about=""><dc:format>image/svg+xml</dc:format><dc:type
           rdf:resource="http://purl.org/dc/dcmitype/StillImage" /><dc:title /></cc:Work></rdf:RDF></metadata><defs
     id="defs6"><clipPath
       id="clipPath16"><path
         d="M 0,500 500,500 500,0 0,0 0,500 z"
         id="path18"
         inkscape:connector-curvature="0" /></clipPath></defs><g
     transform="matrix(1.25,0,0,-1.25,-159.30662,469.94687)"
     id="g10"><g
       id="g12"><g
         clip-path="url(#clipPath16)"
         id="g14"><g
           transform="translate(344.4453,375.9575)"
           id="g20"><path
             d="m 0,0 -202,0 c -8.284,0 -15,-6.716 -15,-15 l 0,-202 c 0,-8.284 6.716,-15 15,-15 l 55.671,0 c -2.454,4.607 -4.495,9.66 -6.096,15.187 -2.782,9.604 -4.173,20.23 -4.173,31.881 0,12.385 1.655,23.484 4.96,33.299 3.306,9.812 7.872,18.156 13.697,25.033 5.826,6.873 12.699,12.146 20.625,15.821 7.923,3.673 16.452,5.511 25.584,5.511 5.982,0 11.649,-0.684 17.003,-2.047 5.352,-1.365 10.39,-3.36 15.113,-5.982 l 0,91.872 36.841,0 0,-210.575 22.775,0 c 8.284,0 15,6.716 15,15 l 0,202 C 15,-6.716 8.284,0 0,0 m -110.783,-148.721 c -5.144,-7.977 -7.714,-20.049 -7.714,-36.211 0,-15.324 2.413,-26.842 7.242,-34.557 4.826,-7.715 11.544,-11.572 20.151,-11.572 11.021,0 21.515,6.559 31.488,19.68 l 0,61.244 c -9.552,8.92 -19.734,13.381 -30.542,13.381 -8.608,0 -15.484,-3.991 -20.625,-11.965"
             id="path22"
             style="fill:#363737;fill-opacity:1;fill-rule:nonzero;stroke:none"
             inkscape:connector-curvature="0" /></g></g></g></g></svg>